<?xml version="1.0" encoding="UTF-8" standalone="no"?>
<svg
   width="456"
   height="456"
   viewBox="0 0 456 456"
   version="1.1"
   xml:space="preserve"
   style="fill-rule:evenodd;clip-rule:evenodd;stroke-linejoin:round;stroke-miterlimit:2;"
   id="svg4"
   sodipodi:docname="splash.svg"
   inkscape:version="1.3.2 (091e20e, 2023-11-25, custom)"
   xmlns:inkscape="http://www.inkscape.org/namespaces/inkscape"
   xmlns:sodipodi="http://sodipodi.sourceforge.net/DTD/sodipodi-0.dtd"
   xmlns="http://www.w3.org/2000/svg"
   xmlns:svg="http://www.w3.org/2000/svg"><defs
   id="defs4" /><sodipodi:namedview
   id="namedview4"
   pagecolor="#ffffff"
   bordercolor="#666666"
   borderopacity="1.0"
   inkscape:showpageshadow="2"
   inkscape:pageopacity="0.0"
   inkscape:pagecheckerboard="0"
   inkscape:deskcolor="#d1d1d1"
   inkscape:zoom="0.9002193"
   inkscape:cx="102.19732"
   inkscape:cy="254.93788"
   inkscape:window-width="1920"
   inkscape:window-height="1017"
   inkscape:window-x="-8"
   inkscape:window-y="-8"
   inkscape:window-maximized="1"
   inkscape:current-layer="svg4" />
    
    
    
    
<path
   style="font-weight:bold;font-size:133.333px;line-height:1.25;font-family:Arial;-inkscape-font-specification:'Arial Bold';fill:#ffffff"
   d="m 93.137063,177.26887 h 35.221267 q 11.91403,0 18.16401,1.82291 8.39842,2.47395 14.38799,8.78904 5.98957,6.31509 9.11456,15.49475 3.12499,9.11456 3.12499,22.52599 0,11.78382 -2.92968,20.31245 -3.58072,10.41664 -10.22133,16.86193 -5.01301,4.8828 -13.54163,7.61717 -6.38019,2.01822 -17.05725,2.01822 H 93.137063 Z m 19.270787,16.14579 v 63.21599 h 14.38798 q 8.0729,0 11.65362,-0.91146 4.68749,-1.17187 7.74737,-3.97134 3.125,-2.79948 5.07812,-9.17967 1.95312,-6.44529 1.95312,-17.51297 0,-11.06768 -1.95312,-16.99215 -1.95312,-5.92446 -5.46874,-9.24477 -3.51562,-3.3203 -8.91925,-4.49217 -4.03645,-0.91146 -15.82027,-0.91146 z m 77.60397,79.29667 v -94.66121 h 19.27078 v 78.58053 h 47.91655 v 16.08068 z m 80.66385,0 v -95.44246 h 28.84107 l 17.31766,65.104 17.12236,-65.104 h 28.90617 v 95.44246 h -17.9036 v -75.13001 l -18.94526,75.13001 h -18.55464 l -18.88016,-75.13001 v 75.13001 z"
   id="text4"
   aria-label="DLM" /></svg>
